<?xml version="1.0" standalone="no"?>
<!DOCTYPE svg PUBLIC "-//W3C//DTD SVG 20010904//EN"
 "http://www.w3.org/TR/2001/REC-SVG-20010904/DTD/svg10.dtd">
<svg version="1.0" xmlns="http://www.w3.org/2000/svg"
 viewBox="0 0 2600.000000 2600.000000"
 preserveAspectRatio="xMidYMid meet">
<metadata>
Created by potrace 1.15, written by Peter Selinger 2001-2017
</metadata>
<g transform="translate(0.000000,2600.000000) scale(0.100000,-0.100000)"
fill="#000000" stroke="none">
<path d="M12643 23768 c-15 -18 -35 -58 -29 -58 2 0 13 16 25 35 20 35 22 46
4 23z"/>
<path d="M12418 23422 c-272 -411 -371 -587 -457 -806 -122 -312 -163 -535
-163 -881 2 -682 211 -1191 740 -1804 326 -377 506 -639 657 -954 315 -659
364 -1326 149 -2016 -84 -269 -213 -516 -430 -821 -45 -63 -191 -252 -324
-420 -134 -168 -280 -354 -325 -415 -352 -472 -510 -850 -532 -1270 -6 -116 9
-321 27 -382 8 -26 8 -25 9 15 3 130 71 357 156 519 188 357 471 656 1050
1108 298 233 469 386 639 570 383 416 641 847 795 1330 88 276 115 478 115
865 0 314 -12 455 -60 740 -88 520 -227 807 -670 1385 -211 275 -297 396 -469
655 -565 853 -737 1311 -796 2115 -19 265 0 523 51 669 11 33 19 60 18 62 -2
1 -82 -118 -180 -264z"/>
<path d="M10965 19846 c34 -127 68 -210 177 -441 213 -448 262 -575 303 -780
100 -505 99 -1010 -4 -1430 -59 -241 -151 -467 -271 -669 -144 -241 -252 -372
-539 -651 -500 -485 -635 -630 -766 -825 -479 -717 -332 -1782 383 -2762 47
-65 87 -116 89 -114 2 2 -9 37 -25 77 -38 96 -76 222 -101 334 -154 697 -1
1396 427 1960 132 173 257 292 626 594 362 295 513 448 644 651 357 551 495
1301 378 2050 -139 888 -594 1631 -1244 2033 -50 31 -94 57 -96 57 -3 0 6 -38
19 -84z"/>
<path d="M12785 12788 c-136 -15 -324 -57 -460 -102 -126 -42 -312 -122 -304
-130 2 -2 45 -21 94 -41 317 -131 626 -306 1312 -746 823 -527 1433 -1017
1917 -1539 99 -107 342 -359 541 -560 544 -552 796 -845 970 -1127 21 -35 41
-63 46 -63 4 0 32 33 61 73 185 247 271 513 271 842 -1 673 -351 1368 -1009
2004 -780 754 -1846 1281 -2801 1385 -155 17 -503 20 -638 4z"/>
<path d="M11588 12286 c-174 -144 -311 -349 -371 -556 -93 -320 -58 -750 108
-1329 115 -403 266 -717 512 -1068 177 -252 449 -544 690 -740 l113 -92 138
64 c584 267 1127 405 1662 422 361 11 677 -36 970 -144 193 -72 526 -247 654
-346 60 -45 283 -287 338 -366 l17 -24 58 33 c99 55 173 104 173 116 0 18
-101 173 -185 285 -203 269 -415 502 -975 1074 -118 121 -301 310 -405 419
-511 536 -1051 966 -1893 1504 -716 458 -1028 626 -1396 751 l-144 49 -64 -52z"/>
<path d="M7075 11804 c-305 -23 -527 -63 -750 -135 l-100 -32 202 -53 c788
-207 1503 -462 2173 -777 201 -94 1123 -558 1275 -642 673 -370 1138 -726
1437 -1102 l66 -82 6 31 c10 48 7 198 -5 264 -43 243 -182 460 -428 668 -117
99 -200 159 -489 355 -136 92 -395 272 -577 401 -397 281 -632 438 -831 558
-510 306 -935 463 -1429 527 -117 15 -449 27 -550 19z"/>
<path d="M5660 11328 c-372 -312 -506 -711 -405 -1203 185 -896 834 -1674
1778 -2130 468 -227 919 -344 1477 -386 177 -13 678 -7 835 11 749 83 1283
285 1639 620 79 75 178 197 231 288 l36 63 -24 42 c-235 400 -761 837 -1512
1254 -499 278 -1377 700 -1835 883 -544 218 -1128 405 -1715 551 -164 41 -222
51 -320 56 l-120 5 -65 -54z"/>
<path d="M14212 8815 c-871 -100 -1780 -508 -2557 -1149 -167 -138 -510 -485
-639 -646 -440 -552 -653 -1112 -633 -1660 11 -301 95 -547 263 -773 l65 -87
99 147 c189 285 310 423 943 1078 852 881 974 1000 1327 1284 299 242 660 502
1004 723 738 477 1045 653 1372 793 60 26 115 50 124 55 29 17 -259 134 -440
179 -197 48 -316 62 -565 66 -165 3 -278 0 -363 -10z"/>
<path d="M15825 8321 c-374 -128 -656 -279 -1364 -728 -830 -527 -1459 -1022
-1909 -1502 -75 -80 -305 -319 -511 -531 -545 -561 -812 -864 -969 -1097 -69
-103 -116 -183 -111 -187 2 -2 31 -21 64 -43 544 -363 1394 -510 2258 -392
814 111 1469 429 2046 993 502 492 816 1033 990 1706 90 345 124 566 124 805
1 306 -57 512 -206 735 -64 96 -249 280 -280 279 -12 0 -71 -17 -132 -38z"/>
<path d="M20215 7834 c-487 -29 -899 -145 -1360 -383 -302 -156 -545 -311
-1114 -714 -179 -127 -445 -311 -591 -410 -398 -270 -513 -361 -663 -527 -190
-210 -290 -482 -261 -718 l9 -73 67 84 c292 368 743 716 1408 1086 246 137
1263 643 1526 759 636 280 1339 521 2019 693 66 17 121 32 123 34 10 10 -258
85 -413 115 -214 41 -556 66 -750 54z"/>
<path d="M21670 7399 c-124 -18 -632 -154 -990 -264 -745 -230 -1318 -470
-2295 -963 -635 -320 -1041 -569 -1410 -865 -208 -168 -460 -441 -578 -628
l-36 -56 44 -74 c282 -478 905 -785 1815 -896 210 -26 860 -26 1075 0 723 87
1361 337 1910 751 193 145 450 392 588 566 349 438 573 978 594 1431 17 388
-124 698 -437 958 l-61 51 -82 -1 c-45 -1 -107 -5 -137 -10z"/>
</g>
</svg>
